<svg id="Layer_1" data-name="Layer 1" xmlns="http://www.w3.org/2000/svg" viewBox="0 0 168.51 82.05"><defs><style>.cls-1{fill:#fdd700;}.cls-2{fill:#ed2224;}.cls-3{fill:#8a181a;}.cls-4{fill:#7d277d;}.cls-5,.cls-6{fill:none;stroke:#000;}.cls-5{stroke-linejoin:round;}.cls-6{stroke-miterlimit:10;}.cls-7{fill:#231f20;}</style></defs><title>Logo</title><polyline class="cls-1" points="7.25 72.83 8.37 72.83 9.49 72.83 10.6 72.83 11.72 72.83 12.83 72.83 13.95 72.83 15.07 72.83 16.18 72.83 17.3 72.83 18.41 72.83 19.53 72.83 19.53 59.77 18.41 62.32 17.3 63.99 16.18 65.16 15.07 66.17 13.95 67.21 12.83 68.26 11.72 69.31 10.6 70.3 9.49 71.18 8.37 71.8 7.25 72.11"/><polygon class="cls-2" points="19.53 59.77 19.53 72.83 20.65 72.83 21.76 72.83 22.88 72.83 23.99 72.83 25.11 72.83 26.23 72.83 27.34 72.83 28.46 72.83 29.57 72.83 30.69 72.83 31.81 72.83 32.92 72.83 34.04 72.83 35.15 72.83 36.27 72.83 36.27 31.03 35.15 28.39 34.04 26.59 32.92 25.59 31.81 24.81 30.69 23.67 29.57 22.16 28.46 21.06 27.34 21.63 26.23 24.82 25.11 30.52 23.99 37.63 22.88 44.78 21.76 51.05 20.65 56.06 19.53 59.77"/><polygon class="cls-3" points="36.27 31.03 36.27 72.83 37.39 72.83 38.5 72.83 39.62 72.83 40.73 72.83 41.85 72.83 42.97 72.83 44.08 72.83 45.2 72.83 46.31 72.83 47.43 72.83 48.55 72.83 49.66 72.83 50.78 72.83 51.89 72.83 53.01 72.83 54.13 72.83 55.24 72.83 56.36 72.83 57.47 72.83 58.59 72.83 59.71 72.83 60.82 72.83 61.94 72.83 63.05 72.83 64.17 72.83 65.29 72.83 66.4 72.83 67.52 72.83 68.63 72.83 69.75 72.83 70.87 72.83 71.98 72.83 73.1 72.83 74.21 72.83 75.33 72.83 75.33 70.04 74.21 69.7 73.1 69.47 71.98 69.48 70.87 69.73 69.75 70.12 68.63 70.42 67.52 70.44 66.4 70.04 65.29 69.25 64.17 68.17 63.05 66.95 61.94 65.82 60.82 65.06 59.71 64.88 58.59 65.15 57.47 65.38 56.36 64.94 55.24 63.52 54.13 61.36 53.01 59.16 51.89 57.73 50.78 57.47 49.66 58.01 48.55 58.35 47.43 57.63 46.31 55.62 45.2 52.67 44.08 49.23 42.97 45.83 41.85 42.97 40.73 40.81 39.62 38.96 38.5 36.81 37.39 34.06 36.27 31.03"/><polygon class="cls-4" points="75.33 70.04 75.33 72.83 76.45 72.83 77.56 72.83 78.68 72.83 79.79 72.83 80.91 72.83 82.03 72.83 83.14 72.83 84.26 72.83 85.37 72.83 86.49 72.83 87.61 72.83 88.72 72.83 89.84 72.83 90.95 72.83 92.07 72.83 93.19 72.83 94.3 72.83 95.42 72.83 96.53 72.83 97.65 72.83 98.77 72.83 99.88 72.83 101 72.83 102.11 72.83 103.23 72.83 104.35 72.83 105.46 72.83 106.58 72.83 107.69 72.83 108.81 72.83 109.93 72.83 111.04 72.83 112.16 72.83 113.27 72.83 114.39 72.83 115.51 72.83 116.62 72.83 117.74 72.83 118.85 72.83 119.97 72.83 121.09 72.83 122.2 72.83 123.32 72.83 124.43 72.83 125.55 72.83 126.67 72.83 127.78 72.83 128.9 72.83 130.01 72.83 131.13 72.83 132.25 72.83 133.36 72.83 134.48 72.83 135.59 72.83 136.71 72.83 137.83 72.83 138.94 72.83 140.06 72.83 141.17 72.83 142.29 72.83 143.41 72.83 144.52 72.83 145.64 72.83 146.75 72.83 147.87 72.83 147.87 70.81 146.75 70.68 145.64 70.66 144.52 70.86 143.41 71.26 142.29 71.72 141.17 72.04 140.06 72.09 138.94 71.9 137.83 71.55 136.71 71.14 135.59 70.67 134.48 70.21 133.36 69.88 132.25 69.8 131.13 69.97 130.01 70.2 128.9 70.33 127.78 70.28 126.67 69.96 125.55 69.21 124.43 67.94 123.32 66.38 122.2 65.05 121.09 64.44 119.97 64.57 118.85 64.8 117.74 64.22 116.62 62.3 115.51 59.29 114.39 55.99 113.27 53.03 112.16 50.33 111.04 47.41 109.93 44.06 108.81 40.69 107.69 38.22 106.58 37.66 105.46 39.37 104.35 42.6 103.23 46.05 102.11 48.9 101 51.08 99.88 52.83 98.77 54.2 97.65 55.12 96.53 55.53 95.42 55.52 94.3 55.35 93.19 55.57 92.07 56.58 90.95 58.2 89.84 59.79 88.72 60.83 87.61 61.32 86.49 61.63 85.37 62.07 84.26 62.72 83.14 63.58 82.03 64.76 80.91 66.31 79.79 67.96 78.68 69.32 77.56 70.08 76.45 70.25 75.33 70.04"/><polyline class="cls-5" points="7.25 72.11 8.37 71.8 9.49 71.18 11.72 69.31 17.3 63.99 18.41 62.32 19.53 59.77 20.65 56.06 21.76 51.05 22.88 44.78 25.11 30.52 26.23 24.82 27.34 21.63 28.46 21.06 29.57 22.16 30.69 23.67 31.81 24.81 32.92 25.59 34.04 26.59 35.15 28.39 36.27 31.03 38.5 36.81 39.62 38.96 40.73 40.81 41.85 42.97 42.97 45.83 45.2 52.67 46.31 55.62 47.43 57.63 48.55 58.35 49.66 58.01 50.78 57.47 51.89 57.73 53.01 59.16 55.24 63.52 56.36 64.94 57.47 65.38 59.71 64.88 60.82 65.06 61.94 65.82 65.29 69.25 66.4 70.04 67.52 70.44 68.63 70.42 71.98 69.48 73.1 69.47 76.45 70.25 77.56 70.08 78.68 69.32 79.79 67.96 82.03 64.76 83.14 63.58 84.26 62.72 85.37 62.07 86.49 61.63 87.61 61.32 88.72 60.83 89.84 59.79 92.07 56.58 93.19 55.57 94.3 55.35 95.42 55.52 96.53 55.53 97.65 55.12 98.77 54.2 99.88 52.83 101 51.08 102.11 48.9 103.23 46.05 105.46 39.37 106.58 37.66 107.69 38.22 108.81 40.69 111.04 47.41 116.62 62.3 117.74 64.22 118.85 64.8 121.09 64.44 122.2 65.05 123.32 66.38 124.43 67.94 125.55 69.21 126.67 69.96 127.78 70.28 128.9 70.33 131.13 69.97 132.25 69.8 133.36 69.88 134.48 70.21 137.83 71.55 138.94 71.9 140.06 72.09 141.17 72.04 142.29 71.72 144.52 70.86 145.64 70.66 146.75 70.68 148.99 70.96"/><rect class="cls-6" x="8.37" y="70.13" width="5.58" height="2.7"/><rect class="cls-6" x="13.95" y="65.28" width="5.58" height="7.55"/><rect class="cls-6" x="19.53" y="52.34" width="5.58" height="20.49"/><rect class="cls-6" x="25.11" y="21.06" width="5.58" height="51.77"/><rect class="cls-6" x="30.69" y="25.37" width="5.58" height="47.46"/><rect class="cls-6" x="36.27" y="41.01" width="5.58" height="31.82"/><rect class="cls-6" x="41.85" y="51.8" width="5.58" height="21.03"/><rect class="cls-6" x="47.43" y="58.27" width="5.58" height="14.56"/><rect class="cls-6" x="53.01" y="65.82" width="5.58" height="7.01"/><rect class="cls-6" x="58.59" y="65.28" width="5.58" height="7.55"/><rect class="cls-6" x="64.17" y="70.67" width="5.58" height="2.16"/><rect class="cls-6" x="69.75" y="69.06" width="5.58" height="3.77"/><rect class="cls-6" x="75.33" y="71.21" width="5.58" height="1.62"/><rect class="cls-6" x="80.91" y="62.58" width="5.58" height="10.25"/><rect class="cls-6" x="86.49" y="61.51" width="5.58" height="11.33"/><rect class="cls-6" x="92.07" y="55.03" width="5.58" height="17.8"/><rect class="cls-6" x="97.65" y="53.96" width="5.58" height="18.88"/><rect class="cls-6" x="103.23" y="39.93" width="5.58" height="32.9"/><rect class="cls-6" x="108.81" y="48.56" width="5.58" height="24.27"/><rect class="cls-6" x="114.39" y="64.74" width="5.58" height="8.09"/><rect class="cls-6" x="119.97" y="65.82" width="5.58" height="7.01"/><rect class="cls-6" x="125.55" y="71.21" width="5.58" height="1.62"/><rect class="cls-6" x="131.13" y="69.59" width="5.58" height="3.24"/><rect class="cls-6" x="136.71" y="72.29" width="5.58" height="0.54"/><rect class="cls-6" x="142.29" y="70.67" width="5.58" height="2.16"/><path class="cls-7" d="M59.55,10.64V24.81c0,1.14,0,2.27,0,3.43H57.31a15.75,15.75,0,0,1-.12-1.64c-.6,1.21-1.8,1.93-3.77,1.93-3.13,0-5.07-2.53-5.07-6.27s2.08-6.52,5.48-6.52c2.08,0,3,.82,3.36,1.48V10.64ZM50.79,22.19c0,2.84,1.31,4.37,3.18,4.37,2.75,0,3.31-2.07,3.31-4.57s-.51-4.29-3.16-4.29C52,17.7,50.79,19.35,50.79,22.19Z"/><path class="cls-7" d="M64.57,22.58c0,2.3,1.17,4,3.17,4a2.65,2.65,0,0,0,2.79-1.78H72.9a5,5,0,0,1-5.23,3.71c-3.88,0-5.48-3.1-5.48-6.26,0-3.67,1.85-6.53,5.61-6.53,4,0,5.31,3.13,5.31,5.83a8.12,8.12,0,0,1,0,1ZM70.73,21c0-1.89-1-3.43-3-3.43S64.84,19,64.64,21Z"/><path class="cls-7" d="M74.33,16h2.06V12.48h2.36V16h2.64V17.9H78.75v6.94c0,1.14.29,1.7,1.37,1.7a4.51,4.51,0,0,0,1-.09v1.73a6.07,6.07,0,0,1-1.91.23c-2,0-2.83-1-2.83-3.09V17.9H74.33Z"/><path class="cls-7" d="M83.5,19.34c0-1.61,0-2.59,0-3.32h2.31c0,.33.07,1.34.07,2.43a4.23,4.23,0,0,1,4.07-2.71v2.32c-2.49.05-4.07,1.23-4.07,4.37v5.81H83.5Z"/><path class="cls-7" d="M92,10.64h2.35v2.71H92ZM92,16h2.35V28.24H92Z"/><path class="cls-7" d="M96.45,16h2.07V12.48h2.36V16h2.64V17.9h-2.64v6.94c0,1.14.29,1.7,1.37,1.7a4.56,4.56,0,0,0,1-.09v1.73a6.07,6.07,0,0,1-1.91.23c-2,0-2.83-1-2.83-3.09V17.9H96.45Z"/><path class="cls-7" d="M115,25.48a21.19,21.19,0,0,0,.16,2.76h-2.25a5.87,5.87,0,0,1-.19-1.52c-.43.79-1.38,1.81-3.71,1.81-2.9,0-4.13-1.89-4.13-3.75,0-2.74,2.16-4,5.78-4h2v-1c0-1-.34-2.26-2.48-2.26-1.93,0-2.26.93-2.47,1.87h-2.27c.16-1.78,1.26-3.68,4.82-3.67,3,0,4.72,1.24,4.72,4Zm-2.3-3.12h-1.87c-2.36,0-3.55.67-3.55,2.28a2,2,0,0,0,2.26,2.09c2.78,0,3.16-1.89,3.16-4Z"/><path class="cls-7" d="M118.54,28.24V10.64h2.36v17.6Z"/><path class="cls-7" d="M124.9,11.57h6.43c3.3,0,5.56,1.85,5.56,4.91,0,3.32-2.42,5-5.68,5h-3.83v6.73H124.9Zm2.48,7.89H131c2.17,0,3.32-1,3.32-2.92s-1.36-2.92-3.23-2.92h-3.74Z"/><path class="cls-7" d="M141.18,16c1.84,5.54,2.92,8.88,3.22,10.1h0c.37-1.35,1.21-4.14,3.1-10.1h2.37l-4.34,12.74c-1.22,3.57-2.15,4.5-4.74,4.5a11.66,11.66,0,0,1-1.36-.08v-2a7.59,7.59,0,0,0,1,.06c1.48,0,2.08-.63,2.75-2.54L138.64,16Z"/></svg>